# xmcd
#
# Track frame offsets:
# 150
# 20002
# 39035
# 53783
# 68954
# 85938
# 100069
# 117555
# 134657
# 152713
# 170031
# 192355
# 207846
# 224705
# 238593
# 259352
# 275783
# 291825
# 315605
#
# Disc length: 4478 seconds
#
#
# Revision: 0
# Processed by: cddbd v1.5.1PL0 Copyright (c) Steve Scherf et al.
# Submitted via: FreeRIP 2.93 
#
DISCID=2c117c13
DTITLE=Zsa Zsa Padilla - Hiram-A Divine Collection Disc 2
DYEAR=2004
DGENRE=Easy Listening
TTITLE0=Mambobola
TTITLE1=When I'm With You
TTITLE2=Nag-iisa
TTITLE3=Fallin' In
TTITLE4=No More Room For Tears
TTITLE5=Here In My Life
TTITLE6=Another Chance
TTITLE7=Ikaw Pa Lang
TTITLE8=Sa Piling Mo
TTITLE9=(Baby Please) Come Back
TTITLE10=Hanggang Kailan
TTITLE11=Tell Me Why (There Are Times)
TTITLE12=Sa Aking Puso
TTITLE13=Kulang
TTITLE14=Sa Bawat Sandali
TTITLE15=Pangako
TTITLE16=To Love You
TTITLE17=Maybe This Time
TTITLE18=Minsan Pa
EXTD=
EXTT0=
EXTT1=
EXTT2=
EXTT3=
EXTT4=
EXTT5=
EXTT6=
EXTT7=
EXTT8=
EXTT9=
EXTT10=
EXTT11=
EXTT12=
EXTT13=
EXTT14=
EXTT15=
EXTT16=
EXTT17=
EXTT18=
PLAYORDER=
